<svg width="2731" height="2731" viewBox="0 0 2731 2731" fill="none" xmlns="http://www.w3.org/2000/svg">
<g clip-path="url(#clip0_138_44)">
<rect width="2730" height="2731" rx="625" fill="white"/>
<path d="M597.6 1.466C437.733 7.99934 287.2 75.066 177.333 188.799C74.6667 295.199 14.5333 427.599 2.4 574.666C-0.133333 605.066 -0.133333 2127.47 2.4 2156C6.66667 2204.8 13.0667 2243.47 22 2276.13C57.4667 2404.93 133.733 2517.47 243.333 2603.07C270.133 2624 317.2 2653.07 348.667 2668.13C391.733 2688.8 456.8 2710.8 496 2718.13C526 2723.73 564.267 2728 596.667 2729.33C638.133 2731.07 2105.87 2731.07 2141.2 2729.33C2180.93 2727.33 2231.47 2720.4 2258 2713.33C2317.2 2697.6 2370.27 2676.67 2414.53 2651.47C2465.6 2622.4 2510.8 2587.73 2552.13 2545.73C2624.4 2472.4 2675.2 2387.73 2703.33 2294C2716 2251.6 2723.47 2212.53 2728.27 2162.67C2730.4 2139.73 2731.47 642.266 2729.33 600.666C2727.07 554.933 2724.27 531.999 2717.2 497.066C2696.13 393.199 2647.73 295.733 2576 212.933C2561.2 195.866 2524.8 160.133 2507.33 145.466C2442.27 91.3327 2364.93 49.866 2284.67 26.1327C2233.07 10.9327 2186.27 3.73267 2124.27 1.33267C2083.07 -0.26733 636 -0.133997 597.6 1.466ZM1560.67 407.866C1617.87 417.999 1664.67 442.133 1705.47 482.933C1791.47 568.933 1809.87 698.799 1758.4 855.999C1743.47 901.599 1714.53 964.799 1683.33 1020C1600.8 1165.87 1474.27 1312.4 1326.4 1433.73C1261.6 1486.93 1190.13 1534.93 1107.33 1580.93C1085.87 1592.93 1077.47 1597.47 1048.4 1612.67C1020.8 1627.33 972.933 1648.53 938.667 1661.33C821.2 1705.2 706.933 1713.2 616.8 1684C575.2 1670.4 543.733 1652.53 512.667 1624.53C484.933 1599.6 457.467 1556.8 444.8 1518.67C427.867 1467.6 426.133 1407.33 440 1353.33C448.133 1321.73 467.467 1284.27 490.533 1255.73C501.467 1242.13 524 1220.93 538.4 1210.67C544.8 1206.13 560 1196.53 572.133 1189.2C596.667 1174.67 603.733 1168.4 607.2 1157.73C609.867 1149.87 610.133 1134.93 608 1126.53C607.2 1123.33 602.933 1113.07 598.667 1103.87C588.533 1082.13 580.8 1059.6 576.533 1039.33C572.267 1019.6 570.667 978.799 573.2 957.733C577.067 926.266 586 895.866 599.867 867.199C614.267 837.333 632 812.933 655.067 791.333C719.333 730.666 807.333 707.466 899.067 726.799C945.067 736.399 984 751.333 1026.67 775.866C1081.33 807.199 1128.53 843.733 1180.67 894.933C1193.07 907.199 1203.47 917.066 1203.6 916.799C1204.67 915.733 1209.6 855.999 1211.33 822.666C1212.53 801.066 1214.27 774.666 1215.47 763.999C1228 642.933 1262 553.333 1320.4 487.733C1354.13 449.733 1404.4 421.066 1454.93 410.533C1490 403.333 1529.07 402.399 1560.67 407.866ZM1784.13 614.266C1782.93 616.399 1782.8 616.133 1782.67 612.666C1782.67 609.866 1783.07 609.199 1784.13 610.266C1785.2 611.333 1785.2 612.399 1784.13 614.266ZM1958 623.466C1998.8 629.733 2035.07 643.333 2068 664.933C2123.33 701.333 2158.93 750.399 2178 816.666C2191.87 864.666 2190.53 921.866 2174.4 969.999C2163.47 1002.67 2150.13 1029.33 2129.47 1059.33C2113.73 1082.27 2099.87 1098.93 2076.67 1122.53C2041.07 1158.93 2012.27 1182.53 1959.33 1218.67C1944 1229.2 1926.27 1241.33 1920 1245.73C1906.53 1255.2 1880 1276.13 1880 1277.33C1880 1278.4 1905.2 1285.07 1948.67 1295.47C2022.8 1313.2 2057.73 1324.27 2103.33 1344.53C2184.67 1380.67 2244.53 1433.33 2274.67 1495.33C2291.33 1529.47 2298.4 1557.73 2299.6 1594.67C2301.07 1640.27 2293.47 1678.13 2274.8 1718C2249.07 1772.8 2202.4 1820.67 2148.27 1847.87C2122.27 1860.93 2098.4 1868.67 2068 1874C2029.73 1880.67 2019.2 1885.87 2011.73 1902C2008.8 1908.4 2008.67 1910 2008.53 1944.67C2008.4 1964.4 2008 1984.27 2007.47 1988.67C2004.67 2012.53 1996.93 2044 1989.33 2063.2C1964.4 2126.13 1911.87 2182.27 1848.13 2214.13C1793.2 2241.6 1727.33 2248.27 1666.8 2232.53C1627.47 2222.27 1591.47 2203.6 1556.67 2175.33C1539.73 2161.6 1510.67 2131.33 1497.07 2113.33C1455.87 2058.67 1425.33 1991.47 1404 1908.67C1385.6 1837.07 1376.8 1771.87 1373.33 1681.33C1371.07 1621.47 1368.93 1598.8 1363.07 1575.47C1359.47 1560.67 1356.8 1553.33 1354.93 1553.33C1350.4 1553.33 1325.33 1578.13 1309.07 1598.67C1273.47 1643.73 1209.73 1743.2 1166.27 1821.33C1109.07 1924.4 1055.07 2050.8 1030.67 2138.93C1022.4 2168.93 1018.93 2176.4 1010.8 2181.47C999.733 2188.53 984.133 2185.87 974.933 2175.33C966.8 2166.13 966.133 2158.93 971.333 2138C975.2 2122.67 996.133 2059.73 1007.33 2029.33C1038 1946.8 1086.8 1845.07 1137.73 1757.33C1177.87 1688.4 1219.47 1624.67 1259.73 1570.67C1277.6 1546.93 1308 1515.47 1320.27 1508.13C1335.33 1499.33 1343.47 1496.8 1356.67 1496.8C1372.27 1496.8 1381.07 1500.13 1391.87 1510.13C1416.93 1533.33 1424.53 1566.27 1430 1676.67C1435.6 1789.47 1447.6 1864.67 1471.6 1938C1514.4 2069.07 1590 2154.53 1683.87 2178C1721.07 2187.33 1760 2185.6 1797.73 2173.2C1863.73 2151.33 1920.27 2094.53 1941.07 2029.2C1949.87 2001.73 1950.8 1994 1951.87 1945.33C1952.8 1902.4 1953.07 1900.27 1956.27 1890.4C1961.73 1874.13 1968.4 1863.2 1981.2 1850.67C1998.8 1833.07 2018.93 1824 2050 1819.47C2079.47 1815.07 2096.4 1809.87 2120.67 1798C2166 1775.87 2198.93 1742.8 2222 1696.27C2236.4 1667.33 2242.67 1640.4 2242.93 1607.33C2243.2 1574 2236.4 1544.53 2221.87 1516.13C2185.47 1445.07 2094.27 1388.53 1965.6 1357.47C1890.53 1339.2 1875.87 1335.6 1856.67 1330C1844.93 1326.67 1834.4 1323.6 1833.33 1323.33C1832.13 1322.93 1826.27 1327.6 1818.67 1334.93C1789.6 1362.67 1752.4 1386.13 1718.53 1398C1687.07 1409.07 1660.67 1413.87 1634 1413.73C1595.33 1413.6 1564.13 1403.07 1546.8 1384.53C1536.8 1374 1533.07 1364.67 1532.93 1350.93C1532.93 1342.4 1533.47 1340.27 1538 1331.33C1557.47 1292.93 1608.27 1268.53 1691.33 1257.87C1703.33 1256.27 1718.4 1255.6 1740 1255.6C1767.87 1255.6 1779.73 1256.27 1806.67 1259.33L1814 1260.27L1833.33 1243.33C1855.73 1223.73 1881.87 1203.87 1919.33 1178C1954.67 1153.6 1972.13 1140.67 1990.67 1125.2C2062.27 1065.6 2107.07 1003.73 2122.67 943.333C2128.67 919.999 2129.73 909.466 2128.93 880.266C2128 842.133 2124 825.066 2108.67 793.999C2096.27 768.666 2088.4 757.466 2070.8 739.999C2052.93 722.266 2036.27 710.533 2013.33 699.466C1981.6 684.266 1955.6 678.266 1920.67 678.133C1896.27 677.999 1886.93 679.199 1863.2 685.466C1843.6 690.666 1834.53 690.666 1826.4 685.466C1814.13 677.733 1810 661.733 1816.8 648.266C1822.8 636.266 1829.73 633.066 1864.27 625.999C1895.07 619.866 1927.87 618.933 1958 623.466ZM1731.33 1401.33C1730.93 1402 1729.73 1402.67 1728.93 1402.67C1728 1402.67 1728.13 1402.13 1729.33 1401.33C1731.87 1399.73 1732.4 1399.73 1731.33 1401.33ZM1664 2165.87C1664 2166.27 1663.47 2166.93 1662.67 2167.33C1662 2167.73 1661.33 2167.47 1661.33 2166.8C1661.33 2166 1662 2165.33 1662.67 2165.33C1663.47 2165.33 1664 2165.6 1664 2165.87ZM1780.67 2172C1781.07 2172.67 1780.8 2173.33 1780.13 2173.33C1779.33 2173.33 1778.67 2172.67 1778.67 2172C1778.67 2171.2 1778.93 2170.67 1779.2 2170.67C1779.6 2170.67 1780.27 2171.2 1780.67 2172ZM984.4 2234.4C996.8 2239.87 1007.73 2253.07 1011.47 2266.93C1014 2276.67 1013.73 2283.6 1010.67 2293.47C1007.47 2303.6 1002.4 2310.67 993.333 2317.47C983.867 2324.53 975.467 2327.07 962.933 2326.4C944.667 2325.6 929.2 2315.33 921.6 2298.93C918.533 2292.4 918 2289.6 918 2278.67C918 2267.73 918.533 2264.93 921.467 2258.53C932.667 2234.53 960.667 2223.87 984.4 2234.4ZM994.133 2232.8C994.267 2234 994.133 2234.53 993.6 2234.13C993.2 2233.6 992.667 2232.27 992.533 2231.2C992.4 2230 992.533 2229.47 993.067 2229.87C993.467 2230.4 994 2231.73 994.133 2232.8Z" fill="#0E9A7D"/>
<path d="M1488 462.8C1435.33 469.6 1392.13 491.6 1360.27 528C1330.4 562.133 1303.6 616.4 1290 670.4C1276.93 722.8 1271.47 762.933 1268 832C1265.47 884.4 1262.67 912.266 1256.53 946.4L1253.07 965.467L1270.4 983.067C1330.4 1043.87 1364.67 1100 1376 1156C1383.87 1194.53 1379.33 1223.07 1363.07 1239.2C1351.47 1250.67 1337.87 1254.8 1320.53 1252.13C1301.07 1249.2 1283.6 1239.6 1264.27 1220.8C1214.8 1173.07 1184.27 1084.67 1190.53 1007.73L1192.13 987.867L1169.87 964.933C1109.33 902.533 1067.87 867.733 1016 835.733C963.733 803.466 910.133 783.466 862.666 778.533C842.666 776.4 808.666 777.733 792.666 781.066C714.4 797.866 656.4 854.8 635.6 935.333C630.533 954.933 629.066 967.2 629.2 989.867C629.2 1020.4 634.133 1042.93 646.933 1072C664.4 1111.47 667.2 1122.4 666.266 1146C665.466 1166.8 661.733 1178.8 650.8 1195.33C640.8 1210.53 627.466 1222.27 606 1234.93C575.6 1252.8 564 1261.2 548.666 1276.53C492.133 1333.2 473.333 1415.33 498.266 1497.2C515.733 1555.2 559.066 1601.33 617.066 1623.73C683.733 1649.6 761.466 1651.73 848 1630C870.4 1624.4 918.533 1608.53 942.933 1598.8C1006.53 1573.33 1098.93 1523.47 1179.33 1470.93C1317.6 1380.67 1460.4 1243.2 1561.33 1103.33C1626 1013.6 1670.67 931.6 1699.6 850C1713.73 809.866 1720.8 781.866 1726.93 742C1730.93 715.733 1731.2 672.4 1727.47 650.133C1718.8 597.6 1701.07 560.666 1668 526.133C1634.8 491.466 1593.07 470.133 1545.33 463.333C1530.4 461.2 1502.13 460.933 1488 462.8Z" fill="#0E9A7D"/>
<path d="M1246.67 1041.73C1246.67 1046.67 1251.47 1075.47 1254 1085.33C1264 1125.07 1283.33 1161.6 1305.33 1181.87C1313.73 1189.6 1320.8 1194.67 1323.2 1194.67C1325.2 1194.67 1322.93 1175.07 1319.33 1161.2C1309.87 1123.6 1288.4 1086.8 1254.4 1049.33C1250.13 1044.67 1246.67 1041.2 1246.67 1041.73Z" fill="#0E9A7D"/>
<path d="M1699.73 1313.47C1673.2 1316.27 1639.33 1324.53 1618.67 1333.2C1608.53 1337.47 1592.93 1347.6 1594 1349.33C1595.07 1351.2 1606.4 1354.4 1617.33 1356.13C1629.47 1358 1653.73 1357.07 1669.33 1354C1699.2 1348.27 1732.67 1333.07 1756 1314.67L1759.33 1312L1734.67 1312.27C1721.07 1312.27 1705.33 1312.8 1699.73 1313.47Z" fill="#0E9A7D"/>
</g>
<defs>
<clipPath id="clip0_138_44">
<rect width="2730.67" height="2730.67" fill="white"/>
</clipPath>
</defs>
</svg>
